<svg id="Livello_1" data-name="Livello 1" xmlns="http://www.w3.org/2000/svg" viewBox="0 0 1080 1080"><defs><style>.cls-1{fill:#fefefe;}.cls-2{fill:#050301;}.cls-3{fill:#fd5400;}.cls-4{fill:#fa5300;}.cls-5{fill:#e4d10a;}</style></defs><title>myCup</title><path class="cls-1" d="M420.1,540q0-267.66-.09-535.31c0-3.62.61-4.68,4.52-4.68Q959.87.19,1495.2,0c4.18,0,4.8,1,4.8,4.92q-.16,535.06,0,1070.14c0,3.91-.58,4.94-4.78,4.94q-535.09-.2-1070.18,0c-4.38,0-5-1.1-5-5.18Q420.18,807.42,420.1,540ZM958.7,893.92c197-.29,352.86-157.61,357.27-348.43,4.66-201.07-155.18-363.39-352.09-365.93C763.32,177,604.46,337.75,601.78,531,599,729.82,758.52,893.65,958.7,893.92Z" transform="translate(-420 0)"/><path class="cls-2" d="M958.7,893.92C758.52,893.65,599,729.82,601.78,531,604.46,337.75,763.32,177,963.88,179.56c196.91,2.54,356.75,164.86,352.09,365.93C1311.56,736.31,1155.72,893.63,958.7,893.92Zm-2-311.94c19,0,34.29-.21,49.6-.67,19-.56,37.91-1.18,56.86-2,34.22-1.49,68.4-3.64,102.56-6.22,28.52-2.16,57-4.17,85.56-6.37,11.33-.87,11.24-1,10.92-12.45q-1.15-41.91-2.18-83.84c-.18-7.29-1-8.66-7.85-10.63-15-4.29-30-8.61-45.07-12.58a1329.28,1329.28,0,0,0-142.37-29.52,767.65,767.65,0,0,0-96.78-8.35,575.13,575.13,0,0,0-74.2,3.55q-45.6,5-90.59,13.67C759,435,715.26,445.66,672,458.14c-16.19,4.68-13.79,1.55-14.07,17.4,0,.16-.05.33-.05.5-.88,28.43-1.7,56.86-2.68,85.29-.12,3.37.77,4.47,4.27,4.73,37.13,2.78,74.22,6.17,111.38,8.57q58,3.76,116.07,6C911.4,581.54,935.87,582.43,956.69,582ZM1262,586.85a21.68,21.68,0,0,1,0-4.49c1.13-5.2-1.49-5.59-5.72-5.21-16.72,1.5-33.47,2.68-50.2,4.08q-61.87,5.17-123.87,8.45c-25.41,1.38-50.84,2.51-76.28,3-33.12.57-66.25.63-99.4-.3q-55.62-1.56-111.13-5.12c-17.92-1.17-35.85-2.16-53.76-3.52q-40.51-3.06-81-6.59c-3.88-.34-4.94.7-4.77,4.48.88,19.44,1.59,38.89,2.3,58.34a7.78,7.78,0,0,0,2,5.43C669.13,654.59,677.83,664,687,673c11.52,11.29,23.58,22,35,33.38,3.52,3.48,5.84,4,10,1,28.53-20.73,57.28-41.16,85.84-61.84,3.53-2.55,6.43-2.93,10.38-1,15,7.31,30.16,14.52,45.43,21.35,7.62,3.41,14.59,8.48,23.62,8.44q61.23-.24,122.46,0a30.67,30.67,0,0,0,13.41-3.14c19-9,38.12-17.83,57.11-26.87,3.21-1.53,5.49-1.58,8.59.66,29,21,58.17,41.62,87.19,62.53,3.76,2.7,6.09,2.83,9.62-.7,17.67-17.64,35.64-35,53.56-52.37,6.15-6,10.73-12.74,10.86-21.65C1260.32,617.4,1261,602.12,1262,586.85Zm-604-143.93c-.22,9,.49,9.56,7.52,7.86.32-.08.61-.27.93-.36,17.88-4.82,35.71-9.86,53.66-14.42,51.07-13,102.61-23.58,154.94-30.21a704.29,704.29,0,0,1,76.49-6c44.7-.75,88.9,4.37,132.87,11.54a1260.52,1260.52,0,0,1,132.73,29.46c12,3.3,24,6.36,36,9.45,6.57,1.68,7.2,1.26,6.66-5.55-.67-8.44-2.36-16.83-2.51-25.26-.19-10.49-5.5-18-11.89-25.44-21.63-25.1-44.8-48.71-68.41-71.91-4.9-4.81-8.7-5.08-14.29-2.66q-37.8,16.36-75.53,32.92a10.21,10.21,0,0,1-8.91.2c-17.23-7.23-34.56-14.23-51.86-21.3-4.15-1.7-8.36-3.11-12.93-3.11q-51.74,0-103.48-.11c-5.65,0-11.3.1-16.66,2.32-18.06,7.47-36.14,14.87-54.16,22.41a9.89,9.89,0,0,1-8.48-.3q-37.92-16.72-76-33.16c-5.88-2.55-9.5-1.64-13.8,2.87-7.92,8.32-15.83,16.63-23.86,24.85-15.93,16.3-31.81,32.65-47.14,49.53-4.17,4.59-8,9.58-8.76,15.92C659.89,423.21,659,434,658.05,442.92ZM948.16,685.2v.53c-16.16,0-32.32.1-48.48-.08-3.55,0-4.94,1.17-5.63,4.57-2.09,10.24-4.56,20.4-6.79,30.61-6,27.24-12.49,54.35-16.53,82-2.94,20.07-4.07,40.34-6.68,60.44-.64,4.92,2.19,6.27,6.16,7.26,35.21,8.8,70.86,12.75,107.19,10.73a396.56,396.56,0,0,0,69.84-10.56c4.89-1.16,7-3.52,6.56-8.69-1.74-21.86-3.41-43.73-7.18-65.36-6.11-35-13.83-69.64-22.32-104.13-1.63-6.64-2.54-7.29-9.71-7.3Zm144.51-28.41a19.73,19.73,0,0,0-9.44,2.24c-15.09,7.22-30.11,14.57-45.34,21.48-3.78,1.71-4.46,3.85-3.64,7.32,3.46,14.69,7,29.36,10.33,44.07,9.64,42.61,18,85.42,20.41,129.17.16,2.87.48,4.06,4,2.91a322.89,322.89,0,0,0,52.45-22.56,29.07,29.07,0,0,0,10.73-10.15c21.47-33.14,37.37-68.88,49.9-106.23,1.5-4.46.58-7.44-3.31-10.2-23.61-16.79-47-33.82-70.67-50.58C1103.34,660.88,1099.07,656.1,1092.67,656.79ZM825,655.87c-2.68-.12-4.73,1.09-6.83,2.6q-38.76,27.78-77.62,55.43c-5.85,4.16-6.47,5.68-3.41,11.86Q764.54,781,792,836.2a11.51,11.51,0,0,0,4.84,5.48,325.6,325.6,0,0,0,50.6,21.8c3.41,1.12,5.29,1.17,5.53-3.63,1.4-27.74,5.52-55.16,10.71-82.43,5.76-30.17,12.71-60.08,19.93-89.92.74-3.06.55-5.09-2.92-6.66-13.28-6-26.31-12.55-39.61-18.48C835.8,660,830.87,656.7,825,655.87Zm134.21-464c-30.27-.56-60,3.49-89.2,11.17-6.1,1.6-6.18,1.59-4.07,7.64,12,34.41,24.1,68.79,36,103.25,1.32,3.84,3.77,4.83,7.06,4.85,4.65,0,9.3-.47,13.94-.45q42.45.18,84.89.54c3.66,0,6.55-.69,7.89-4.53q18.43-52.77,36.93-105.54c1.17-3.33.18-4.72-3.21-5.56C1019.79,195.88,989.84,191.23,959.22,191.85ZM614.28,546.76a349.23,349.23,0,0,0,6.14,60.29c12.52,65.58,43.44,121.5,89.75,169.19a428.64,428.64,0,0,0,39,34.93c6.2,5,12.75,9.52,19.09,14.33,1.26,1,2.62,2.06,4,1.07,1.61-1.16.88-3,.32-4.57a17.53,17.53,0,0,0-.87-1.8q-22.9-47.15-45.74-94.32a27.66,27.66,0,0,0-7.89-10.07C710.56,710,703.74,703.4,696.77,697c-15.92-14.68-30.66-30.54-45.65-46.14-2.87-3-3.68-6.61-3.8-10.49-.7-21-1.63-41.89-2-62.85-.47-30.62-1.13-61.24.37-91.87,1.12-22.77,3.15-45.44,5.58-68.09.67-6.2.88-12.57,5.45-17.76,8.45-9.6,16.48-19.57,25-29.13,16.61-18.67,34.91-35.72,52.41-53.53,4.67-4.74,9.18-9.7,12.53-15.44,10.8-18.45,22.29-36.46,33.79-54.48,1-1.51,2.7-3.35,1.21-4.8s-3.22.31-4.77,1.31c-29.92,19.48-57.09,42.14-80.84,68.9a316.11,316.11,0,0,0-53.48,83C622.6,441.12,614.33,489.09,614.28,546.76ZM1135.53,241.2c.09,3.4,1.76,5.4,3,7.49,7.1,11.77,14.44,23.39,21.47,35.19,8,13.4,16.08,26.57,27.2,37.79,21.91,22.11,43.42,44.6,65,67a68.35,68.35,0,0,1,7.36,9.4c5.81,8.65,7.08,18.38,8,28.66,2.33,25.34,4.09,50.7,5,76.1.88,24.92,1.4,49.87.66,74.84-.61,20.62-1.57,41.21-2.47,61.81-.24,5.41-1.64,9.86-6.23,13.4s-8.3,7.66-12.34,11.61c-17.38,17-34.66,34.09-52.12,51a30.18,30.18,0,0,0-8,12.87,485.67,485.67,0,0,1-38.64,88c-.79,1.41-2.3,3.34-1,4.51,1.6,1.49,3.25-.5,4.66-1.48a302.57,302.57,0,0,0,31.57-25c24.27-22.15,45.68-46.72,63.12-74.72,32-51.41,49.1-107.46,51.87-167.8a346,346,0,0,0-21.84-138.32,337.78,337.78,0,0,0-129.2-162.81C1147.35,247.21,1142.37,242.87,1135.53,241.2ZM835.86,342.05a28.22,28.22,0,0,0,15.32-3.28c11.82-6.12,24.25-10.75,36.64-15.44,4.46-1.69,4.9-3.6,3.44-7.74q-18.39-52-36.39-104.18c-1.19-3.46-2.84-3.95-5.91-2.67-11,4.57-22.09,9-33.1,13.6-2.28.95-4.66,1.89-6.24,4-3.5,4.62-6.94,9.3-10.49,13.89C783.8,260,771,281.49,758,302.83c-4.27,7-4.27,6.83,3.16,10,18.89,8.06,38.07,15.47,56.42,24.8C823.24,340.51,829.23,342.53,835.86,342.05Zm246.23,1.82c2,.28,3.69-.52,5.35-1.23,23.88-10.26,47.73-20.61,71.64-30.8,3.69-1.57,4.15-3.09,2-6.62-15.35-25.51-32.67-49.69-49.23-74.38a21.5,21.5,0,0,0-9.22-8.16c-11.27-4.77-22.61-9.4-33.93-14.07-2.73-1.12-4.53-.75-5.63,2.54-3.66,11-7.59,21.91-11.44,32.84-8.43,23.9-16.76,47.83-25.4,71.66-1.61,4.46-.58,6.2,3.69,7.82,12.23,4.64,24.29,9.74,36.42,14.64C1071.55,340.21,1076.55,342.82,1082.09,343.87Z" transform="translate(-420 0)"/><path class="cls-3" d="M956.69,582c-20.82.45-45.29-.44-69.74-1.37q-58.07-2.21-116.07-6c-37.16-2.4-74.25-5.79-111.38-8.57-3.5-.26-4.39-1.36-4.27-4.73,1-28.43,1.8-56.86,2.68-85.29,0-.17.05-.34.05-.5.28-15.85-2.12-12.72,14.07-17.4C715.26,445.66,759,435,803.15,426.56q45-8.64,90.59-13.67a575.13,575.13,0,0,1,74.2-3.55,767.65,767.65,0,0,1,96.78,8.35,1329.28,1329.28,0,0,1,142.37,29.52c15.08,4,30.08,8.29,45.07,12.58,6.87,2,7.67,3.34,7.85,10.63q1,41.93,2.18,83.84c.32,11.43.41,11.58-10.92,12.45-28.51,2.2-57,4.21-85.56,6.37-34.16,2.58-68.34,4.73-102.56,6.22-19,.83-37.9,1.45-56.86,2C991,581.77,975.67,581.94,956.69,582Zm-4.76-70.86c10.46,14.47,22.53,18.91,39.44,14.52,4.26-1.11,8.94,1.73,12.87-1.62.15-.13.68,0,.93.21,7.66,5.09,16,1.73,24,1.92,1.23,0,2.81-.89,3.51.79s-1.06,2.16-2,3c-2.54,2.27-2.22,5.11-1.32,7.84.84,2.55,3.09,3.32,5.6,3.32,4.67,0,9.33,0,14,0,2.51,0,4.67-.85,5.56-3.41s1-5.48-1.38-7.36c-3.64-2.86-2.09-3.61,1.29-4.36,10.15-2.25,15.55-8.93,17.27-18.93s-4.94-20.58-14.65-21.49c-6-.57-12.4-1-18.43,1.15-1.41.49-3.24,1.64-4.22,1.15-6.4-3.19-12.92-1.45-19.5-1.24-8.85.28-9-.24-9.9-9.52-.42-4.39-3.26-7-7.38-5.84-3.18.91-5.78.1-8.68-.57-12.82-3-24.78-.89-32.62,10.13-4.25,6-9.29,5.24-14.54,5.59-11.07.75-22.3-3.31-33.28,1.13a3,3,0,0,1-1.83-.31c-8.87-3.26-17.66-2.43-26.34.66-5.48,1.95-6.39,5.95-3.66,11,2.88,5.32,2.53,11.6.42,16.74-2.91,7.08-1.68,11.1,5.8,11.37,8.24.29,16.59.77,24.73-.19,6.39-.75,12.42,1.35,19,.09a24.12,24.12,0,0,1-.76,2.47c-1.78,4.05-.88,7.56,2.39,10.34A9.24,9.24,0,0,0,939,540.79c3.47-1.73,5.27-4.84,6.35-8.54C947.41,525.28,949.66,518.39,951.93,511.12Z" transform="translate(-420 0)"/><path class="cls-3" d="M1262,586.85c-1,15.27-1.69,30.55-1.92,45.86-.13,8.91-4.71,15.67-10.86,21.65-17.92,17.39-35.89,34.73-53.56,52.37-3.53,3.53-5.86,3.4-9.62.7-29-20.91-58.2-41.58-87.19-62.53-3.1-2.24-5.38-2.19-8.59-.66-19,9-38.09,17.86-57.11,26.87a30.67,30.67,0,0,1-13.41,3.14q-61.23-.12-122.46,0c-9,0-16-5-23.62-8.44-15.27-6.83-30.38-14-45.43-21.35-4-1.91-6.85-1.53-10.38,1-28.56,20.68-57.31,41.11-85.84,61.84-4.15,3-6.47,2.5-10-1C710.56,695,698.5,684.27,687,673c-9.15-9-17.85-18.39-26.73-27.62a7.78,7.78,0,0,1-2-5.43c-.71-19.45-1.42-38.9-2.3-58.34-.17-3.78.89-4.82,4.77-4.48q40.47,3.51,81,6.59c17.91,1.36,35.84,2.35,53.76,3.52q55.51,3.62,111.13,5.12c33.15.93,66.28.87,99.4.3,25.44-.45,50.87-1.58,76.28-3q62-3.37,123.87-8.45c16.73-1.4,33.48-2.58,50.2-4.08,4.23-.38,6.85,0,5.72,5.21A21.68,21.68,0,0,0,1262,586.85Z" transform="translate(-420 0)"/><path class="cls-3" d="M658.05,442.92c.92-8.95,1.84-19.71,3.18-30.41.8-6.34,4.59-11.33,8.76-15.92,15.33-16.88,31.21-33.23,47.14-49.53,8-8.22,15.94-16.53,23.86-24.85,4.3-4.51,7.92-5.42,13.8-2.87q38,16.49,76,33.16a9.89,9.89,0,0,0,8.48.3c18-7.54,36.1-14.94,54.16-22.41,5.36-2.22,11-2.32,16.66-2.32q51.74,0,103.48.11c4.57,0,8.78,1.41,12.93,3.11,17.3,7.07,34.63,14.07,51.86,21.3a10.21,10.21,0,0,0,8.91-.2q37.68-16.62,75.53-32.92c5.59-2.42,9.39-2.15,14.29,2.66,23.61,23.2,46.78,46.81,68.41,71.91,6.39,7.42,11.7,14.95,11.89,25.44.15,8.43,1.84,16.82,2.51,25.26.54,6.81-.09,7.23-6.66,5.55-12-3.09-24-6.15-36-9.45a1260.52,1260.52,0,0,0-132.73-29.46c-44-7.17-88.17-12.29-132.87-11.54a704.29,704.29,0,0,0-76.49,6C822.77,412.42,771.23,423,720.16,436c-17.95,4.56-35.78,9.6-53.66,14.42-.32.09-.61.28-.93.36C658.54,452.48,657.83,451.91,658.05,442.92Z" transform="translate(-420 0)"/><path class="cls-3" d="M948.16,685.2h66.43c7.17,0,8.08.66,9.71,7.3,8.49,34.49,16.21,69.14,22.32,104.13,3.77,21.63,5.44,43.5,7.18,65.36.41,5.17-1.67,7.53-6.56,8.69a396.56,396.56,0,0,1-69.84,10.56c-36.33,2-72-1.93-107.19-10.73-4-1-6.8-2.34-6.16-7.26,2.61-20.1,3.74-40.37,6.68-60.44,4-27.63,10.58-54.74,16.53-82,2.23-10.21,4.7-20.37,6.79-30.61.69-3.4,2.08-4.61,5.63-4.57,16.16.18,32.32.08,48.48.08Z" transform="translate(-420 0)"/><path class="cls-3" d="M1092.67,656.79c6.4-.69,10.67,4.09,15.43,7.47,23.62,16.76,47.06,33.79,70.67,50.58,3.89,2.76,4.81,5.74,3.31,10.2-12.53,37.35-28.43,73.09-49.9,106.23a29.07,29.07,0,0,1-10.73,10.15A322.89,322.89,0,0,1,1069,864c-3.53,1.15-3.85,0-4-2.91-2.37-43.75-10.77-86.56-20.41-129.17-3.33-14.71-6.87-29.38-10.33-44.07-.82-3.47-.14-5.61,3.64-7.32,15.23-6.91,30.25-14.26,45.34-21.48A19.73,19.73,0,0,1,1092.67,656.79Z" transform="translate(-420 0)"/><path class="cls-3" d="M825,655.87c5.86.83,10.79,4.15,16,6.49,13.3,5.93,26.33,12.49,39.61,18.48,3.47,1.57,3.66,3.6,2.92,6.66-7.22,29.84-14.17,59.75-19.93,89.92-5.19,27.27-9.31,54.69-10.71,82.43-.24,4.8-2.12,4.75-5.53,3.63a325.6,325.6,0,0,1-50.6-21.8A11.51,11.51,0,0,1,792,836.2Q764.6,781,737.15,725.76c-3.06-6.18-2.44-7.7,3.41-11.86q38.85-27.66,77.62-55.43C820.28,657,822.33,655.75,825,655.87Z" transform="translate(-420 0)"/><path class="cls-3" d="M959.21,191.86c30.63-.63,60.58,4,90.2,11.36,3.39.84,4.38,2.23,3.21,5.56q-18.52,52.75-36.93,105.54c-1.34,3.84-4.23,4.56-7.89,4.53q-42.45-.36-84.89-.54c-4.64,0-9.29.47-13.94.45-3.29,0-5.74-1-7.06-4.85-11.86-34.46-24-68.84-36-103.25-2.11-6-2-6,4.07-7.64C899.26,195.34,929,191.29,959.21,191.86Z" transform="translate(-420 0)"/><path class="cls-4" d="M614.28,546.76c.05-57.67,8.32-105.64,28.32-151.18a316.11,316.11,0,0,1,53.48-83c23.75-26.76,50.92-49.42,80.84-68.9,1.55-1,3.31-2.72,4.77-1.31s-.24,3.29-1.21,4.8c-11.5,18-23,36-33.79,54.48-3.35,5.74-7.86,10.7-12.53,15.44-17.5,17.81-35.8,34.86-52.41,53.53-8.5,9.56-16.53,19.53-25,29.13-4.57,5.19-4.78,11.56-5.45,17.76-2.43,22.65-4.46,45.32-5.58,68.09-1.5,30.63-.84,61.25-.37,91.87.32,21,1.25,41.9,2,62.85.12,3.88.93,7.49,3.8,10.49,15,15.6,29.73,31.46,45.65,46.14,7,6.41,13.79,13,21.28,18.82a27.66,27.66,0,0,1,7.89,10.07q22.74,47.22,45.74,94.32a17.53,17.53,0,0,1,.87,1.8c.56,1.57,1.29,3.41-.32,4.57-1.38,1-2.74-.12-4-1.07-6.34-4.81-12.89-9.34-19.09-14.33a428.64,428.64,0,0,1-39-34.93c-46.31-47.69-77.23-103.61-89.75-169.19A349.23,349.23,0,0,1,614.28,546.76Z" transform="translate(-420 0)"/><path class="cls-4" d="M1135.53,241.2c6.84,1.67,11.82,6,17,9.53a337.78,337.78,0,0,1,129.2,162.81,346,346,0,0,1,21.84,138.32c-2.77,60.34-19.83,116.39-51.87,167.8-17.44,28-38.85,52.57-63.12,74.72a302.57,302.57,0,0,1-31.57,25c-1.41,1-3.06,3-4.66,1.48-1.25-1.17.26-3.1,1-4.51a485.67,485.67,0,0,0,38.64-88,30.18,30.18,0,0,1,8-12.87c17.46-16.91,34.74-34,52.12-51,4-4,7.89-8.17,12.34-11.61s6-8,6.23-13.4c.9-20.6,1.86-41.19,2.47-61.81.74-25,.22-49.92-.66-74.84-.9-25.4-2.66-50.76-5-76.1-.94-10.28-2.21-20-8-28.66a68.35,68.35,0,0,0-7.36-9.4c-21.58-22.42-43.09-44.91-65-67-11.12-11.22-19.23-24.39-27.2-37.79-7-11.8-14.37-23.42-21.47-35.19C1137.29,246.6,1135.62,244.6,1135.53,241.2Z" transform="translate(-420 0)"/><path class="cls-3" d="M835.86,342.05c-6.63.48-12.62-1.54-18.27-4.41-18.35-9.33-37.53-16.74-56.42-24.8-7.43-3.18-7.43-3-3.16-10,13-21.34,25.79-42.81,41.12-62.62,3.55-4.59,7-9.27,10.49-13.89,1.58-2.09,4-3,6.24-4,11-4.59,22.08-9,33.1-13.6,3.07-1.28,4.72-.79,5.91,2.67q18,52.16,36.39,104.18c1.46,4.14,1,6.05-3.44,7.74-12.39,4.69-24.82,9.32-36.64,15.44A28.22,28.22,0,0,1,835.86,342.05Z" transform="translate(-420 0)"/><path class="cls-3" d="M1082.09,343.87c-5.54-1.05-10.54-3.66-15.72-5.76-12.13-4.9-24.19-10-36.42-14.64-4.27-1.62-5.3-3.36-3.69-7.82,8.64-23.83,17-47.76,25.4-71.66,3.85-10.93,7.78-21.84,11.44-32.84,1.1-3.29,2.9-3.66,5.63-2.54,11.32,4.67,22.66,9.3,33.93,14.07a21.5,21.5,0,0,1,9.22,8.16c16.56,24.69,33.88,48.87,49.23,74.38,2.12,3.53,1.66,5-2,6.62-23.91,10.19-47.76,20.54-71.64,30.8C1085.78,343.35,1084.06,344.15,1082.09,343.87Z" transform="translate(-420 0)"/><path class="cls-5" d="M951.93,511.12c-2.27,7.27-4.52,14.16-6.56,21.13-1.08,3.7-2.88,6.81-6.35,8.54a9.24,9.24,0,0,1-10.73-1.15c-3.27-2.78-4.17-6.29-2.39-10.34a24.12,24.12,0,0,0,.76-2.47c-6.58,1.26-12.61-.84-19-.09-8.14,1-16.49.48-24.73.19-7.48-.27-8.71-4.29-5.8-11.37,2.11-5.14,2.46-11.42-.42-16.74-2.73-5-1.82-9,3.66-11,8.68-3.09,17.47-3.92,26.34-.66a3,3,0,0,0,1.83.31c11-4.44,22.21-.38,33.28-1.13,5.25-.35,10.29.38,14.54-5.59,7.84-11,19.8-13.09,32.62-10.13,2.9.67,5.5,1.48,8.68.57,4.12-1.18,7,1.45,7.38,5.84.88,9.28,1.05,9.8,9.9,9.52,6.58-.21,13.1-1.95,19.5,1.24,1,.49,2.81-.66,4.22-1.15,6-2.11,12.44-1.72,18.43-1.15,9.71.91,16.35,11.61,14.65,21.49s-7.12,16.68-17.27,18.93c-3.38.75-4.93,1.5-1.29,4.36,2.38,1.88,2.29,4.7,1.38,7.36s-3,3.39-5.56,3.41c-4.66.05-9.32,0-14,0-2.51,0-4.76-.77-5.6-3.32-.9-2.73-1.22-5.57,1.32-7.84.92-.82,2.71-1.23,2-3s-2.28-.76-3.51-.79c-8-.19-16.37,3.17-24-1.92-.25-.17-.78-.34-.93-.21-3.93,3.35-8.61.51-12.87,1.62C974.46,530,962.39,525.59,951.93,511.12Zm35.38-33.42c5.67,2,8.7,6.58,11.53,12.91V477.23c-2.1,2.53-4.13,2.45-6.52.93-1.49-1-3.36-1.29-5.06-1.9-2.9-.67-5.78-1.86-8.78-.46-9.69.47-16.85,4.88-20.67,13.88C954.28,498,955.18,506,961,513.05c3.42,4.16,7.89,6.74,13.46,6.55a28.74,28.74,0,0,0-3.45-2.92c-7.32-6.57-9-14.89-6.84-24.06,1.82-7.9,5.79-14.13,14.49-15.88C981.55,476.85,984.5,476.71,987.31,477.7ZM1048,495c4.41-.1,9-.12,11,4.82,2.9,7,1.46,13.46-4.22,19.22,6.28-1.52,9.5-5.14,10.54-11.49.94-5.76,0-11-5-14.7-4.4-3.26-9-2.25-12.2,2.25-.55-.11-1.08-.21-.57.63ZM981.27,514.1c5.76,0,9.23-3.15,11.18-8.22,1-2.65,2.12-4.88,5.4-5,1.07,0,2.58.4,2.81-1.27a2.66,2.66,0,0,0-2.33-2.84c-3.71-.91-5-3.71-6.52-6.81-4.24-8.68-13.91-10.18-18.69-3a20.79,20.79,0,0,0-2.55,19C972.36,511.23,976.21,514,981.27,514.1Zm53.79-19.37c4.11,1.27,4,4.3,4,7.57-.14,9-.09,18,0,26.95,0,2.18.14,4.27-2.87,5.7h9.94c-1.33-1.88-2.73-12.48-1.85-13.88,1.38-2.2,3.75.73,5.55-1.27-5-1.69-5.83-5.71-5.72-10.24.08-3-.07-6,0-9C1044.5,490.65,1044.53,490.66,1035.06,494.73ZM929.44,492c3.78,11.45,9.41,22.07,11.39,33.7,4.33-10.85,6.18-23,11.45-33.63a8.32,8.32,0,0,0-3.56-.12c.86,8.28-3.42,14.8-5.35,21.92-2.61-7.23-7.14-13.76-6.89-21.87Zm-48.1,2c5.3,3.81,2.73,8.94,2.85,13.35s1.82,9.42-1.78,13.64c3.2,0,6.3.45,9.45-.34-2.53-2-2.56-2-2.56-5.33,0-7.9,0-15.8,0-24.18Zm28.28,26.89c-3.19-1-3-2.89-3-4.65,0-5.66.28-11.32,0-17-.15-3.57-1.72-6.79-5.5-7.84-3.42-.94-6.26.31-8.56,3.6,3.77,0,7.46-.55,8.44,4,1.39,6.42.53,12.93.52,19.39,0,.79-1.38,1.56-2.23,2.47Zm17.53,0c-3.71-1.13-3.13-3.22-3.14-5.07,0-5.48.18-11-.12-16.43-.19-3.56-1.33-7-5.44-8-3.53-.85-6.37.44-8.62,3.55,7.83.27,9,1.52,9.07,9.25,0,4-.06,8,0,12,0,1.82,0,3.51-2.29,4.78Zm94.44-3.44c-8.13,1.1-9.84-.38-9.94-8.49,0-3.65,0-7.3,0-10.95,0-6.43,0-6.43-6.94-5.7,2.11,1.43,2.07,3.41,2.06,5.4,0,4.64,0,9.29,0,13.93,0,3.58.11,7.18,4.08,8.8C1015,522.13,1018.56,520.8,1021.59,517.43Zm10.92,2.06c-3.87-2-3.44-4.82-3.43-7.57,0-4.48,0-9,0-13.46,0-6.89,0-6.89-5.88-6.36,1.85,9.4,0,19.06,1,28.71Zm-33.79.19V507.92a21.93,21.93,0,0,1-12.28,11.83C991,521.5,994.52,514.57,998.72,519.68Zm51.36-13.23a12.05,12.05,0,0,0,0,2.3c.3,1.4-1,3.86,1.45,3.91,1.82,0,2.12-2.19,2.4-3.82a4.86,4.86,0,0,0,.09-1.47c-.28-2.27,1-6-2.47-5.92C1048.62,501.48,1050.84,505,1050.08,506.45ZM940.15,528.24c-1.9,1.07-.76,5.5-4.44,2.86a2.67,2.67,0,0,0-4,.47,2.11,2.11,0,0,0,.16,3.11,3.32,3.32,0,0,0,4.49.59C938.84,533.84,939.11,531.32,940.15,528.24Zm-48.47-32.46.17-.29h-.33Z" transform="translate(-420 0)"/><path class="cls-3" d="M981.27,514.1c-5.06-.06-8.91-2.87-10.7-8.16a20.79,20.79,0,0,1,2.55-19c4.78-7.15,14.45-5.65,18.69,3,1.51,3.1,2.81,5.9,6.52,6.81a2.66,2.66,0,0,1,2.33,2.84c-.23,1.67-1.74,1.24-2.81,1.27-3.28.1-4.39,2.33-5.4,5C990.5,511,987,514.15,981.27,514.1Z" transform="translate(-420 0)"/><path class="cls-2" d="M978.66,476.74c-8.72,1.75-12.69,8-14.51,15.88-2.11,9.17-.48,17.49,6.84,24.06a28.74,28.74,0,0,1,3.45,2.92c-5.57.19-10-2.39-13.46-6.55-5.8-7-6.7-15.06-3.17-23.37,3.82-9,11-13.41,20.66-13.88A.88.88,0,0,0,978.66,476.74Z" transform="translate(-420 0)"/><path class="cls-2" d="M1035.06,494.73c9.47-4.07,9.44-4.08,9,5.84-.11,3,0,6,0,9-.11,4.53.67,8.55,5.72,10.24-1.8,2-4.17-.93-5.55,1.27-.88,1.4.52,12,1.85,13.88h-9.94c3-1.43,2.88-3.52,2.87-5.7-.07-9-.12-18,0-26.95C1039.08,499,1039.17,496,1035.06,494.73Z" transform="translate(-420 0)"/><path class="cls-2" d="M929.44,492h7c-.25,8.11,4.28,14.64,6.89,21.87,1.93-7.12,6.21-13.64,5.35-21.92a8.32,8.32,0,0,1,3.56.12c-5.27,10.66-7.12,22.78-11.45,33.63C938.85,514.05,933.22,503.43,929.44,492Z" transform="translate(-420 0)"/><path class="cls-2" d="M881.34,493.94l7.95-2.86c0,8.38,0,16.28,0,24.18,0,3.3,0,3.3,2.56,5.33-3.15.79-6.25.29-9.45.34,3.6-4.22,1.9-9.15,1.78-13.64S886.64,497.75,881.34,493.94Z" transform="translate(-420 0)"/><path class="cls-2" d="M909.62,520.83H899.37c.85-.91,2.23-1.68,2.23-2.47,0-6.46.87-13-.52-19.39-1-4.55-4.67-4-8.44-4,2.3-3.29,5.14-4.54,8.56-3.6,3.78,1.05,5.35,4.27,5.5,7.84.24,5.65,0,11.31,0,17C906.65,517.94,906.43,519.79,909.62,520.83Z" transform="translate(-420 0)"/><path class="cls-2" d="M927.15,520.87H916.64c2.26-1.27,2.33-3,2.29-4.78-.09-4,0-8,0-12,0-7.73-1.24-9-9.07-9.25,2.25-3.11,5.09-4.4,8.62-3.55,4.11,1,5.25,4.47,5.44,8,.3,5.46.09,10.95.12,16.43C924,517.65,923.44,519.74,927.15,520.87Z" transform="translate(-420 0)"/><path class="cls-2" d="M1021.59,517.43c-3,3.37-6.55,4.7-10.76,3-4-1.62-4.09-5.22-4.08-8.8,0-4.64,0-9.29,0-13.93,0-2,0-4-2.06-5.4,6.94-.73,6.94-.73,6.94,5.7,0,3.65,0,7.3,0,10.95C1011.75,517.05,1013.46,518.53,1021.59,517.43Z" transform="translate(-420 0)"/><path class="cls-2" d="M1048,495.07c3.15-4.5,7.8-5.51,12.2-2.25,5,3.66,5.94,8.94,5,14.7-1,6.35-4.26,10-10.54,11.49,5.68-5.76,7.12-12.17,4.22-19.22-2-4.94-6.56-4.92-11-4.82Z" transform="translate(-420 0)"/><path class="cls-2" d="M1032.51,519.49l-8.28,1.32c-1-9.65.83-19.31-1-28.71,5.88-.53,5.88-.53,5.88,6.36,0,4.49,0,9,0,13.46C1029.07,514.67,1028.64,517.53,1032.51,519.49Z" transform="translate(-420 0)"/><path class="cls-2" d="M998.72,519.68c-4.2-5.11-7.72,1.82-12.28.07a21.93,21.93,0,0,0,12.28-11.83Z" transform="translate(-420 0)"/><path class="cls-2" d="M987.26,476.26c1.7.61,3.57.95,5.06,1.9,2.39,1.52,4.42,1.6,6.52-.93v13.38c-2.83-6.33-5.86-10.9-11.52-12.91C987.31,477.22,987.28,476.74,987.26,476.26Z" transform="translate(-420 0)"/><path class="cls-3" d="M1050.08,506.45c.76-1.46-1.46-5,1.5-5,3.45-.05,2.19,3.65,2.47,5.92a4.86,4.86,0,0,1-.09,1.47c-.28,1.63-.58,3.86-2.4,3.82-2.47,0-1.15-2.51-1.45-3.91A12.05,12.05,0,0,1,1050.08,506.45Z" transform="translate(-420 0)"/><path class="cls-2" d="M940.15,528.24c-1,3.08-1.31,5.6-3.77,7a3.32,3.32,0,0,1-4.49-.59,2.11,2.11,0,0,1-.16-3.11,2.67,2.67,0,0,1,4-.47C939.39,533.74,938.25,529.31,940.15,528.24Z" transform="translate(-420 0)"/><path class="cls-4" d="M987.26,476.26c0,.48,0,1,.06,1.44-2.82-1-5.77-.85-8.67-1a.9.9,0,0,1-.18-.94C981.48,474.4,984.36,475.59,987.26,476.26Z" transform="translate(-420 0)"/><polygon class="cls-2" points="471.68 495.78 471.52 495.48 471.85 495.49 471.68 495.78"/><path class="cls-2" d="M1048,495l-.48.73c-.51-.84,0-.74.57-.63Z" transform="translate(-420 0)"/></svg>